<svg xmlns="http://www.w3.org/2000/svg" viewBox="0 0 400 240"><rect width="400" height="240" fill="#f4f9fc"/><g transform="translate(210 120)" fill="#fff" stroke="#168fce" stroke-width="5"><circle r="68"/><circle r="25"/><g><rect x="-10" y="-90" width="20" height="30" rx="3" transform="rotate(0)"/><rect x="-10" y="-90" width="20" height="30" rx="3" transform="rotate(30)"/><rect x="-10" y="-90" width="20" height="30" rx="3" transform="rotate(60)"/><rect x="-10" y="-90" width="20" height="30" rx="3" transform="rotate(90)"/><rect x="-10" y="-90" width="20" height="30" rx="3" transform="rotate(120)"/><rect x="-10" y="-90" width="20" height="30" rx="3" transform="rotate(150)"/><rect x="-10" y="-90" width="20" height="30" rx="3" transform="rotate(180)"/><rect x="-10" y="-90" width="20" height="30" rx="3" transform="rotate(210)"/><rect x="-10" y="-90" width="20" height="30" rx="3" transform="rotate(240)"/><rect x="-10" y="-90" width="20" height="30" rx="3" transform="rotate(270)"/><rect x="-10" y="-90" width="20" height="30" rx="3" transform="rotate(300)"/><rect x="-10" y="-90" width="20" height="30" rx="3" transform="rotate(330)"/></g></g><g stroke="#344b5c" stroke-width="8" fill="none"><path d="M45 55l95 95M55 45l25 5 65 65-30 30-65-65z"/><path d="M48 50l35 35"/></g></svg>